<?xml version="1.0" encoding="UTF-8"?>
<!DOCTYPE svg PUBLIC "-//W3C//DTD SVG 1.1//EN" "http://www.w3.org/Graphics/SVG/1.1/DTD/svg11.dtd">
<svg xmlns="http://www.w3.org/2000/svg">
  <rect x="0" y="0" width="77.4433" height="86.828" fill="#f26456" stroke="black" />
  <rect x="77.4433" y="0" width="132.76" height="86.828" fill="#409700" stroke="black" />
  <rect x="0" y="86.828" width="210.203" height="100.538" fill="#5e4d93" stroke="black" />
  <rect x="0" y="187.366" width="210.203" height="237.634" fill="#da5b6f" stroke="black" />
  <rect x="210.203" y="0" width="71.1979" height="94.4444" fill="#e1f65d" stroke="black" />
  <rect x="281.401" y="0" width="122.053" height="94.4444" fill="#f12b42" stroke="black" />
  <rect x="403.455" y="0" width="71.1979" height="94.4444" fill="#da8ab3" stroke="black" />
  <rect x="210.203" y="94.4444" width="183.08" height="141.667" fill="#0428f1" stroke="black" />
  <rect x="393.283" y="94.4444" width="81.369" height="141.667" fill="#682b37" stroke="black" />
  <rect x="210.203" y="236.111" width="264.449" height="188.889" fill="#1279f3" stroke="black" />
  <rect x="474.652" y="0" width="230.545" height="425" fill="#a2b9a7" stroke="black" />
  <rect x="705.198" y="0" width="269.915" height="185.064" fill="#3794ac" stroke="black" />
  <rect x="705.198" y="185.064" width="141.384" height="149.474" fill="#6e4f42" stroke="black" />
  <rect x="846.582" y="185.064" width="128.531" height="149.474" fill="#7fd909" stroke="black" />
  <rect x="975.113" y="0" width="292.887" height="334.538" fill="#c5a45d" stroke="black" />
  <rect x="705.198" y="334.538" width="233.616" height="90.4618" fill="#123b47" stroke="black" />
  <rect x="938.814" y="334.538" width="127.427" height="90.4618" fill="#448bea" stroke="black" />
  <rect x="1066.24" y="334.538" width="127.427" height="90.4618" fill="#029086" stroke="black" />
  <rect x="1193.67" y="334.538" width="74.3324" height="90.4618" fill="#2cc0c8" stroke="black" />
  <circle cx="127" cy="184" r="3" fill="#409700" stroke="black" />
  <circle cx="143.823" cy="43.414" r="5" stroke="black" />
  <circle cx="126" cy="75" r="10" fill="#409700" stroke="black" />
  <circle cx="143.823" cy="43.414" r="5" stroke="black" />
  <circle cx="463" cy="374" r="3" fill="#409700" stroke="black" />
  <circle cx="143.823" cy="43.414" r="5" stroke="black" />
  <circle cx="673" cy="83" r="3" fill="#5e4d93" stroke="black" />
  <circle cx="105.102" cy="137.097" r="5" stroke="black" />
  <circle cx="120" cy="115" r="10" fill="#5e4d93" stroke="black" />
  <circle cx="105.102" cy="137.097" r="5" stroke="black" />
  <circle cx="863" cy="394" r="3" fill="#5e4d93" stroke="black" />
  <circle cx="105.102" cy="137.097" r="5" stroke="black" />
  <circle cx="334" cy="61" r="10" fill="#f12b42" stroke="black" />
  <circle cx="342.428" cy="47.2222" r="5" stroke="black" />
  <circle cx="323" cy="370" r="3" fill="#f12b42" stroke="black" />
  <circle cx="342.428" cy="47.2222" r="5" stroke="black" />
  <circle cx="802" cy="345" r="3" fill="#f12b42" stroke="black" />
  <circle cx="342.428" cy="47.2222" r="5" stroke="black" />
  <circle cx="1205" cy="375" r="3" fill="#da8ab3" stroke="black" />
  <circle cx="439.053" cy="47.2222" r="5" stroke="black" />
  <circle cx="782" cy="216" r="3" fill="#da8ab3" stroke="black" />
  <circle cx="439.053" cy="47.2222" r="5" stroke="black" />
  <circle cx="420" cy="58" r="10" fill="#da8ab3" stroke="black" />
  <circle cx="439.053" cy="47.2222" r="5" stroke="black" />
  <circle cx="445" cy="146" r="10" fill="#682b37" stroke="black" />
  <circle cx="433.968" cy="165.278" r="5" stroke="black" />
  <circle cx="302" cy="168" r="3" fill="#682b37" stroke="black" />
  <circle cx="433.968" cy="165.278" r="5" stroke="black" />
  <circle cx="341" cy="365" r="3" fill="#682b37" stroke="black" />
  <circle cx="433.968" cy="165.278" r="5" stroke="black" />
  <circle cx="340" cy="424" r="10" fill="#1279f3" stroke="black" />
  <circle cx="342.428" cy="330.556" r="5" stroke="black" />
  <circle cx="346" cy="345" r="3" fill="#123b47" stroke="black" />
  <circle cx="822.006" cy="379.769" r="5" stroke="black" />
  <circle cx="650" cy="220" r="3" fill="#123b47" stroke="black" />
  <circle cx="822.006" cy="379.769" r="5" stroke="black" />
  <circle cx="846" cy="364" r="10" fill="#123b47" stroke="black" />
  <circle cx="822.006" cy="379.769" r="5" stroke="black" />
  <circle cx="306" cy="369" r="3" fill="#448bea" stroke="black" />
  <circle cx="1002.53" cy="379.769" r="5" stroke="black" />
  <circle cx="1095" cy="32" r="3" fill="#448bea" stroke="black" />
  <circle cx="1002.53" cy="379.769" r="5" stroke="black" />
  <circle cx="1006" cy="400" r="10" fill="#448bea" stroke="black" />
  <circle cx="1002.53" cy="379.769" r="5" stroke="black" />
  <circle cx="1127" cy="38" r="3" fill="#2cc0c8" stroke="black" />
  <circle cx="1230.83" cy="379.769" r="5" stroke="black" />
  <circle cx="332" cy="350" r="3" fill="#2cc0c8" stroke="black" />
  <circle cx="1230.83" cy="379.769" r="5" stroke="black" />
  <circle cx="1229" cy="388" r="10" fill="#2cc0c8" stroke="black" />
  <circle cx="1230.83" cy="379.769" r="5" stroke="black" />
</svg>
